# xmcd
#
# Track frame offsets:
#	150
#	2807
#	6226
#
# Disc length: 166 seconds
#
# Revision: 0
# Processed by: cddbd v1.5.1PL0 Copyright (c) Steve Scherf et al.
# Submitted via: EasyCDDAExtractor 7.5.0.1
#
DISCID=1700a403
DTITLE=Salvatore Zedda Ortacesus - Ortacesus Remix
DYEAR=2005
DGENRE=Comedy
TTITLE0=1° Telefonata
TTITLE1=2° Telefonata
TTITLE2=Disco Mix Track n° 1
EXTD=
EXTT0=
EXTT1=
EXTT2=
PLAYORDER=
